<svg width="520" height="260" viewBox="0 0 520 260" xmlns="http://www.w3.org/2000/svg">
  <defs>
    <style>@import url('https://fonts.googleapis.com/css2?family=Playfair+Display:ital,wght@0,400;0,600;1,400;1,600&amp;family=DM+Sans:wght@400;500&amp;display=swap');</style>
  </defs>
  <text x="260" y="44" text-anchor="middle" font-family="'Playfair Display',serif" font-size="22" font-weight="600" fill="#2C2C2A" letter-spacing="4">The Weeknight</text>
  <line x1="40" y1="36" x2="88" y2="36" stroke="#2C2C2A" stroke-width="0.8"/>
  <line x1="432" y1="36" x2="480" y2="36" stroke="#2C2C2A" stroke-width="0.8"/>
  <text x="260" y="128" text-anchor="middle" font-family="'Playfair Display',serif" font-size="72" font-weight="600" fill="#2C2C2A" letter-spacing="3">Kitchen</text>
  <rect x="72" y="136" width="376" height="4" rx="2" fill="#C4714A"/>
  <line x1="40" y1="168" x2="210" y2="168" stroke="#2A6B8A" stroke-width="0.8"/>
  <line x1="310" y1="168" x2="480" y2="168" stroke="#2A6B8A" stroke-width="0.8"/>
  <g transform="translate(260,168)">
    <line x1="0" y1="-14" x2="0" y2="14" stroke="#2A6B8A" stroke-width="1.8" stroke-linecap="round"/>
    <line x1="-12.1" y1="-7" x2="12.1" y2="7" stroke="#2A6B8A" stroke-width="1.8" stroke-linecap="round"/>
    <line x1="12.1" y1="-7" x2="-12.1" y2="7" stroke="#2A6B8A" stroke-width="1.8" stroke-linecap="round"/>
    <circle cx="0" cy="-14" r="2.5" fill="#2A6B8A"/>
    <circle cx="0" cy="14" r="2.5" fill="#2A6B8A"/>
    <circle cx="-12.1" cy="-7" r="2.5" fill="#2A6B8A"/>
    <circle cx="12.1" cy="7" r="2.5" fill="#2A6B8A"/>
    <circle cx="12.1" cy="-7" r="2.5" fill="#2A6B8A"/>
    <circle cx="-12.1" cy="7" r="2.5" fill="#2A6B8A"/>
  </g>
  <text x="260" y="210" text-anchor="middle" font-family="'Playfair Display',serif" font-size="26" font-weight="600" font-style="italic" fill="#2A6B8A" letter-spacing="1.5">fresh but frozen</text>
  <path d="M58 204 Q50 197 60 193 Q56 199 64 204 Z" fill="#7A9E7E"/>
  <path d="M462 204 Q470 197 460 193 Q464 199 456 204 Z" fill="#7A9E7E"/>
  <text x="260" y="242" text-anchor="middle" font-family="'DM Sans',sans-serif" font-size="11" font-weight="500" fill="#A8A59E" letter-spacing="3.5">NORTH AUSTIN  ·  TX</text>
</svg>
